HIERARCHY
ROOT hip
{
  OFFSET 0.0 0.0 0.0
  CHANNELS 6 Xposition Yposition Zposition Zrotation Yrotation Xrotation
  JOINT torso
  {
    OFFSET 0.0 0.0 0.0
    CHANNELS 3 Zrotation Xrotation Yrotation
    JOINT neck
    {
      OFFSET -8.059630999999968 325.56260699999996 64.6221310000002
      CHANNELS 3 Zrotation Xrotation Yrotation
      JOINT head
      {
        OFFSET 34.685424000000125 375.1179809999999 232.79357900000002
        CHANNELS 3 Zrotation Xrotation Yrotation
        End Site
        {
          OFFSET 0.0 0.0 0.0
        }
      }
    }
    JOINT left_collar
    {
      OFFSET -8.059630999999968 325.56260699999996 64.6221310000002
      CHANNELS 3 Zrotation Xrotation Yrotation
      JOINT left_upper_arm
      {
        OFFSET -124.124665 -15.370300999999927 25.582641999999964
        CHANNELS 3 Zrotation Xrotation Yrotation
        JOINT left_forearm
        {
          OFFSET -268.19913399999996 105.06054699999993 114.74548300000004
          CHANNELS 3 Zrotation Xrotation Yrotation
          JOINT left_hand
          {
            OFFSET -235.82003099999991 -10.198180999999977 -38.67455999999993
            CHANNELS 3 Zrotation Xrotation Yrotation
            End Site
            {
              OFFSET 0.0 0.0 0.0
            }
          }
        }
      }
    }
    JOINT right_collar
    {
      OFFSET -8.059630999999968 325.56260699999996 64.6221310000002
      CHANNELS 3 Zrotation Xrotation Yrotation
      JOINT right_upper_arm
      {
        OFFSET 162.73931899999997 -2.8598030000000563 26.244994999999903
        CHANNELS 3 Zrotation Xrotation Yrotation
        JOINT right_forearm
        {
          OFFSET 284.6506340000001 103.07031299999994 145.84521499999994
          CHANNELS 3 Zrotation Xrotation Yrotation
          JOINT right_hand
          {
            OFFSET 226.332337 -12.198241999999937 -49.27258299999994
            CHANNELS 3 Zrotation Xrotation Yrotation
            End Site
            {
              OFFSET 0.0 0.0 0.0
            }
          }
        }
      }
    }
  }
}
MOTION
Frames: 17
Frame Time: 0.01
383.370207428358 225.94894505076377 753.8586000928393 -0.476470206568562 2.2972006349712357 -3.1497645797851326 0.7512115298976544 -3.022536423528239 -0.2425443332429516 1.035119859618231 0.22394703714889946 -0.66132676918851 0.0 0.0 0.0 0.5565734439370872 0.010849417046769824 0.807020994557428 -1.1185720648780328 3.3836380277727325 9.877106524285692 0.1485948334653046 -0.11686551939262083 2.068444989197182 0.0 0.0 0.0 -0.6520822628520868 0.17288824000936023 2.8797777780656815 4.137010619660517 1.261321408058517 -8.556904017903722 -3.5988399289801265 -1.1363550156511735 -4.008210655139977 0.0 0.0 0.0
383.3714531710015 225.9106738953742 753.8939332702261 -0.4914181301288126 2.148866608999647 -3.2367834246151905 0.7523000520143192 -2.8811439508671155 -0.23843696344935453 1.008740847005551 0.20526571514626163 -0.6433860192664027 0.0 0.0 0.0 0.5721866676207303 0.0036113881654817885 0.8873733884398626 -1.1304323109819066 3.383335163380412 9.886291939470803 0.17739528628055298 -0.12296935101001151 2.08713750563638 0.0 0.0 0.0 -0.6393622201474242 0.1724639696284504 2.9630313523790157 4.141177947647556 1.262854142946784 -8.565467288994833 -3.6225224459476633 -1.1435856097090962 -4.021432773342208 0.0 0.0 0.0
383.3728934544941 225.87315641537046 753.9304112532019 -0.5058182612043579 2.003190748330214 -3.3220837319305825 0.7530366255301749 -2.7425865179708397 -0.23433455579865753 0.9830759469503448 0.18667277272720662 -0.6258890450777684 0.0 0.0 0.0 0.5872687181957476 -0.003464878221343593 0.9654995307760815 -1.143762986263615 3.382157143984752 9.894400695183373 0.2125249367205124 -0.1304997775552976 2.111518229445837 0.0 0.0 0.0 -0.626861875722754 0.172013419355089 3.044185230400713 4.147305527104786 1.262972455078516 -8.572510375596867 -3.652791802227173 -1.1528767083395421 -4.038788078576723 0.0 0.0 0.0
383.37463242675767 225.83586629103448 753.9685462628208 -0.5194023004660849 1.8617788851585266 -3.404390364137302 0.7533827682209234 -2.60868277697308 -0.23028603325151698 0.9585306648104012 0.168272765484325 -0.6090961898573407 0.0 0.0 0.0 0.6016380400686504 -0.010262073452561585 1.040226522975807 -1.1586528391526971 3.380029557980095 9.901311594172423 0.2538344187555485 -0.13945455676741494 2.1419228216894695 0.0 0.0 0.0 -0.6147619833129065 0.1715431516143665 3.1220023328870883 4.155482842082406 1.2616299234560515 -8.578010697663291 -3.6899756550062452 -1.1643632613722756 -4.060768587506731 0.0 0.0 0.0
383.37680295125995 225.7982148559035 754.0088018458031 -0.5319273293428446 1.7261172969740486 -3.482529744578901 0.7533140715706812 -2.481132760031793 -0.22633995403603888 0.9354773960646484 0.1501440018834993 -0.5932452502654174 0.0 0.0 0.0 0.6151439884954202 -0.016671625131181464 1.110502872036059 -1.175145753533422 3.3769092078656833 9.906948530616603 0.30091919232938097 -0.14977745336466045 2.1784815572819864 0.0 0.0 0.0 -0.6032261521066213 0.17105988236763817 3.1953509962946263 4.165737850153729 1.2588232679298377 -8.58199076068492 -3.7341633339266744 -1.178110645188835 -4.087741564669198 0.0 0.0 0.0
383.3795630409151 225.75955881458975 754.0515686754978 -0.5431804919017562 1.5975326320438101 -3.555461481248037 0.7528200013312063 -2.361471809837485 -0.2225428856745877 0.9142446844022727 0.13233410703619597 -0.5785443886645046 0.0 0.0 0.0 0.6276728669563708 -0.0225972236723685 1.1754328213099183 -1.1932294942099857 3.3727912197218894 9.911289763478752 0.3530826679854497 -0.16134825361067695 2.2210700568390513 0.0 0.0 0.0 -0.5923962298442799 0.17057018511780278 3.2632396170553015 4.178022347266895 1.2546029805083712 -8.584529657376425 -3.7851566164917196 -1.1940981654152143 -4.119909021450831 0.0 0.0 0.0
383.3830897693403 225.71920616700146 754.0971443648408 -0.5529817649066757 1.4771576184011266 -3.6223027792802913 0.7519030130588439 -2.251031211398524 -0.21893784710961237 0.8951084551830664 0.11485663270482536 -0.5651663512164464 0.0 0.0 0.0 0.6391525422959661 -0.027957791360589953 1.2343040095481594 -1.2128245513430491 3.367715942228439 9.914376620902809 0.4093014986498067 -0.17397257026505322 2.269260382706101 0.0 0.0 0.0 -0.5823888630596611 0.17008023640499395 3.324845282021622 4.192196782207842 1.2490850107909288 -8.585776558920436 -3.8424232147231843 -1.2122027117319247 -4.157267195511346 0.0 0.0 0.0
383.38757060662624 225.67641996697873 754.145718177779 -0.5611848365438884 1.3659035291118478 -3.682344649715755 0.7505771802344153 -2.150906698086437 -0.21556291315177764 0.8782855411206104 0.09768884315376085 -0.5532442058655869 0.0 0.0 0.0 0.6495554328944302 -0.03268975845483434 1.286607358933182 -1.233773521047945 3.361775387860886 9.916321332895539 0.46819471243348537 -0.18737182003980535 2.3222741390183264 0.0 0.0 0.0 -0.5732933680749237 0.1695956333629154 3.3795353191999107 4.208014984606235 1.2424632378597593 -8.585965982077317 -3.905055011580795 -1.2321831193500277 -4.199567474580526 0.0 0.0 0.0
383.39319224594254 225.63041973704875 754.197361230484 -0.5676761852691301 1.2644402497471503 -3.735059195090254 0.7488665482736346 -2.0619358082555364 -0.21245006760652096 0.8639297490007727 0.08077074471817566 -0.5428687663281152 0.0 0.0 0.0 0.6588997048528861 -0.03674853723992211 1.3320483271939572 -1.2558315070031199 3.355118951212423 9.917313697215231 0.5279985471233642 -0.20117390336077845 2.378939310797995 0.0 0.0 0.0 -0.5651710049533116 0.1691213097286358 3.4268809168788374 4.225109361362756 1.2350223580203183 -8.585434472438632 -3.9717331535635276 -1.2536658849892885 -4.246280271434793 0.0 0.0 0.0
383.40012711006216 225.58038053163958 754.2520224999489 -0.5723724967751734 1.1731846737833451 -3.7800975311259752 0.7468034126319565 -1.9846848853603973 -0.2096243769281126 0.8521306472281334 0.06400537194635972 -0.5340878195863655 0.0 0.0 0.0 0.6672485542118906 -0.04010911483677249 1.3705488992297596 -1.2786580433776873 3.3479581338868996 9.917626302501391 0.5865489345103293 -0.21490527548878713 2.437652616032454 0.0 0.0 0.0 -0.5580557084060167 0.16866157008012772 3.4666621803581124 4.242977189653569 1.2271507187541284 -8.584638204634404 -4.040702094081485 -1.2761329834097674 -4.296563304610566 0.0 0.0 0.0
383.4085178570807 225.5254297832799 754.3095306804001 -0.5752166000387503 1.0922978723964245 -3.817278296881731 0.7444266764602331 -1.9194461716084998 -0.20710353135628795 0.8429151512376714 0.04726028378559165 -0.5269072040399504 0.0 0.0 0.0 0.6747075220498505 -0.04276572721814337 1.4022400459079247 -1.3018110210575529 3.3405700132793608 9.91761806407466 0.6412735510334785 -0.22798525664353245 2.4963491069935415 0.0 0.0 0.0 -0.5519562733766448 0.16822025207196004 3.4988643256358154 4.260968685241876 1.2193525356490538 -8.584170868353203 -4.109754579050399 -1.2989126259365262 -4.349235589506281 0.0 0.0 0.0
383.4184603404312 225.46464219809695 754.3696016319144 -0.5761721484957838 1.0216910749897514 -3.846567200237268 0.741780383048692 -1.8662449677305097 -0.20489776877782062 0.8362518499740279 0.030370159208171363 -0.5212936952396244 0.0 0.0 0.0 0.6814198821718409 -0.04473062804752874 1.4274448331267013 -1.3247430490285257 3.333299213184922 9.917735869577847 0.6891951907321027 -0.2397235700046687 2.552480625066633 0.0 0.0 0.0 -0.5468599191097637 0.1678010138228526 3.523665136051636 4.278277546272741 1.2122588443635791 -8.584781087337696 -4.1762293618488115 -1.3211738826180344 -4.402758201661089 0.0 0.0 0.0
383.42998561283935 225.39703311430128 754.4318508519168 -0.5752173168841772 0.9610400649422262 -3.8680485681707886 0.7389124531497211 -1.8248563294579772 -0.20301016437471245 0.8320578721882482 0.013140319423766278 -0.5171795595281611 0.0 0.0 0.0 0.6875602439042425 -0.04603201915628392 1.4466528559804555 -1.3468006042908198 3.32655816667553 9.91851418128223 0.7269479253335321 -0.24932219913651402 2.603004477210693 0.0 0.0 0.0 -0.5427370756072812 0.1674077302628136 3.541414262639554 4.2939346592317555 1.2066364695874308 -8.587388513605509 -4.237023129336929 -1.3419261402171454 -4.455222552193536 0.0 0.0 0.0
383.44304168899424 225.3215509167357 754.4958100858192 -0.5723378263797956 0.9098072075515684 -3.8818903650921537 0.735873598038823 -1.7948303147996665 -0.20143724091818369 0.8302079515979691 -0.004649050387109152 -0.5144685432487662 0.0 0.0 0.0 0.6933266129060301 -0.0467112587229909 1.4604871480273567 -1.3672262201956962 3.3208255063582 9.920572499266084 0.7508070996052947 -0.2558826961283323 2.6443833642165133 0.0 0.0 0.0 -0.5395471589197439 0.16704496987463552 3.5526053812569702 4.306805601079657 1.203394245357733 -8.593097661255106 -4.288617726627258 -1.3600243747357108 -4.504346540992107 0.0 0.0 0.0
383.4574758896529 225.23706931139824 754.5609469038784 -0.5675196498045777 0.867269997303084 -3.8883045742035582 0.732716333806708 -1.7755244038933362 -0.20016983239903527 0.8305452237731564 -0.023238249283533425 -0.5130429824063572 0.0 0.0 0.0 0.6989312419126155 -0.04681950506385362 1.469665142527492 -1.3851638386196874 3.316642474717507 9.924610655874151 0.7567336826436349 -0.2584200243215321 2.672597170785233 0.0 0.0 0.0 -0.5372450306428617 0.16671851297478396 3.5578426019733085 4.315592478227091 1.2035857043814069 -8.60320850375248 -4.327123303202578 -1.3741811653094915 -4.547478564222208 0.0 0.0 0.0
383.47301867273256 225.14238048332552 754.6266858301194 -0.5607417833509566 0.8325547292373574 -3.8875051821215436 0.7294939957962645 -1.766141379954927 -0.199194118166886 0.8328931810165614 -0.04288327646603676 -0.5127716488275035 0.0 0.0 0.0 0.7045906745367497 -0.046413986006503954 1.4749556163846325 -1.3996673125809704 3.3146073178643376 9.931401988624321 0.7404328859255069 -0.2558838652546877 2.683166762644719 0.0 0.0 0.0 -0.5357877774214815 0.16643586556154757 3.5578028394848658 4.3188405131468794 1.2084074746398237 -8.619222862838846 -4.348337479652364 -1.3829862515373512 -4.581608993028922 0.0 0.0 0.0
383.4892699062737 225.03619033873477 754.6924294332674 -0.5519695006138069 0.8046736513565363 -3.8796662520522456 0.7262596470251088 -1.765770676729936 -0.19849273594823377 0.837068127937874 -0.06385122519932153 -0.5135178961962648 0.0 0.0 0.0 0.710515437225535 -0.045554104866258736 1.477133813988792 -1.4097119022905367 3.315367708341878 9.941784527144272 0.6974263084520894 -0.24718804717735615 2.6711894741129596 0.0 0.0 0.0 -0.5351414047431693 0.16620671989065247 3.553196088194434 4.314949632504847 1.2191926833281015 -8.642845668862353 -4.347820060816604 -1.3849342260707953 -4.603388454017598 0.0 0.0 0.0
